<svg width="211" height="201" viewBox="0 0 211 201" fill="none" xmlns="http://www.w3.org/2000/svg">
<g id="XMLID_1_" filter="url(#filter0_d_4_771)">
<g id="Group 11" filter="url(#filter1_d_4_771)">
<g id="XMLID_11_" filter="url(#filter2_d_4_771)">
<path d="M132.236 184.684C115.574 188.116 97.7685 188.116 81.1882 185.42C16.1739 174.715 -13.2296 92.1856 28.0986 41.6054C40.9218 25.9983 58.8089 14.8037 78.1662 9.16551C105.283 1.32109 135.748 4.50788 159.924 19.1345C218.404 54.5161 215.056 156.085 148.244 180.272C143.099 182.07 137.708 183.54 132.236 184.684Z" fill="#FFFBC9"/>
</g>
<path id="XMLID_10_" d="M148.326 166.953C143.099 168.832 137.708 170.303 132.236 171.447C115.574 174.879 97.7683 174.879 81.188 172.182C39.2064 165.237 12.0899 128.303 9.31293 89.4073C6.12755 132.797 34.4692 177.739 81.188 185.42C97.7683 188.116 115.574 188.116 132.236 184.684C137.79 183.54 143.18 182.07 148.326 180.19C185.979 166.626 203.457 128.384 201.089 91.2867C198.965 123.89 181.487 155.023 148.326 166.953Z" fill="#F2EBA5"/>
<path id="XMLID_9_" d="M142.2 171.283C143.262 170.711 144.324 170.058 145.059 168.996C145.794 168.015 146.121 166.626 145.631 165.564C144.977 164.093 143.18 163.602 141.629 163.357C135.258 162.54 130.929 165.155 125.783 168.26C122.435 170.221 115.574 176.35 124.15 177.494C125.947 177.739 127.744 177.249 129.459 176.677C133.788 175.287 138.28 173.49 142.2 171.283Z" fill="#F2EBA5"/>
<path id="XMLID_8_" d="M151.348 152.653C152.165 151.918 152.982 150.774 152.574 149.711C152.084 148.567 150.45 148.567 149.225 148.894C145.631 149.875 142.446 151.836 142.119 155.84C141.874 157.801 150.94 153.062 151.348 152.653Z" fill="#F2EBA5"/>
<path id="XMLID_7_" d="M171.849 155.84C172.339 155.023 172.747 153.96 172.257 153.143C171.767 152.49 170.787 152.408 169.97 152.408C164.906 152.735 157.882 155.268 155.677 160.252C153.798 164.338 156.739 166.789 160.496 165.809C164.661 164.828 169.644 159.435 171.849 155.84Z" fill="#F2EBA5"/>
<path id="XMLID_6_" d="M179.608 130.264C184.508 133.451 178.056 142.439 174.871 144.727C173.727 145.544 172.339 146.198 170.95 146.116C169.562 146.034 168.173 144.972 168.092 143.501C168.092 142.684 168.5 141.867 168.908 141.213C170.787 138.026 173.972 127.812 178.791 129.937C179.118 129.937 179.363 130.1 179.608 130.264Z" fill="#F2EBA5"/>
<path id="XMLID_5_" d="M100.954 166.136C101.607 166.136 102.424 166.136 102.914 166.544C103.486 167.035 103.486 168.015 103.078 168.75C102.669 169.404 102.016 169.894 101.281 170.303C94.3381 174.307 85.7621 175.287 78.0846 172.918C76.206 172.346 74.0824 171.12 74.0824 169.077C74.1641 165.319 97.7686 166.299 100.954 166.136Z" fill="#F2EBA5"/>
<path id="XMLID_4_" d="M191.37 109.999C191.86 112.859 190.716 129.855 184.835 126.587C179.69 123.727 185.734 112.941 186.714 109.509C187.041 108.446 187.531 107.139 188.674 106.894C190.144 106.649 191.125 108.528 191.37 109.999Z" fill="#F2EBA5"/>
<path id="XMLID_3_" d="M195.943 110.244C192.758 111.96 193.738 96.5163 193.983 94.8004C194.065 93.8198 194.718 92.5124 195.698 92.7575C196.352 92.921 196.597 93.7381 196.679 94.3918C197.332 99.0494 197.414 103.789 196.842 108.528C196.679 109.182 196.515 109.917 195.943 110.244Z" fill="#F2EBA5"/>
</g>
</g>
<defs>
<filter id="filter0_d_4_771" x="0" y="0" width="210.301" height="200.359" filterUnits="userSpaceOnUse" color-interpolation-filters="sRGB">
<feFlood flood-opacity="0" result="BackgroundImageFix"/>
<feColorMatrix in="SourceAlpha" type="matrix" values="0 0 0 0 0 0 0 0 0 0 0 0 0 0 0 0 0 0 127 0" result="hardAlpha"/>
<feOffset dy="4"/>
<feGaussianBlur stdDeviation="4.5"/>
<feComposite in2="hardAlpha" operator="out"/>
<feColorMatrix type="matrix" values="0 0 0 0 1 0 0 0 0 0.984314 0 0 0 0 0.788235 0 0 0 1 0"/>
<feBlend mode="normal" in2="BackgroundImageFix" result="effect1_dropShadow_4_771"/>
<feBlend mode="normal" in="SourceGraphic" in2="effect1_dropShadow_4_771" result="shape"/>
</filter>
<filter id="filter1_d_4_771" x="5" y="5" width="200.301" height="190.359" filterUnits="userSpaceOnUse" color-interpolation-filters="sRGB">
<feFlood flood-opacity="0" result="BackgroundImageFix"/>
<feColorMatrix in="SourceAlpha" type="matrix" values="0 0 0 0 0 0 0 0 0 0 0 0 0 0 0 0 0 0 127 0" result="hardAlpha"/>
<feOffset dy="4"/>
<feGaussianBlur stdDeviation="2"/>
<feComposite in2="hardAlpha" operator="out"/>
<feColorMatrix type="matrix" values="0 0 0 0 0 0 0 0 0 0 0 0 0 0 0 0 0 0 0.25 0"/>
<feBlend mode="normal" in2="BackgroundImageFix" result="effect1_dropShadow_4_771"/>
<feBlend mode="normal" in="SourceGraphic" in2="effect1_dropShadow_4_771" result="shape"/>
</filter>
<filter id="filter2_d_4_771" x="5" y="1" width="200.238" height="190.359" filterUnits="userSpaceOnUse" color-interpolation-filters="sRGB">
<feFlood flood-opacity="0" result="BackgroundImageFix"/>
<feColorMatrix in="SourceAlpha" type="matrix" values="0 0 0 0 0 0 0 0 0 0 0 0 0 0 0 0 0 0 127 0" result="hardAlpha"/>
<feOffset/>
<feGaussianBlur stdDeviation="2"/>
<feComposite in2="hardAlpha" operator="out"/>
<feColorMatrix type="matrix" values="0 0 0 0 1 0 0 0 0 0.984314 0 0 0 0 0.788235 0 0 0 0.25 0"/>
<feBlend mode="normal" in2="BackgroundImageFix" result="effect1_dropShadow_4_771"/>
<feBlend mode="normal" in="SourceGraphic" in2="effect1_dropShadow_4_771" result="shape"/>
</filter>
</defs>
</svg>
